<svg xmlns="http://www.w3.org/2000/svg" viewBox="0 0 303.28 193" stroke-miterlimit="10" fill="none">
    <path d="M55.14 0h193v193h-193z" fill="#fff"/>
    <path d="M61.702 94.995h28.819v91.401H61.702zm37.612 13.997h28.819v77.418h-28.82zm37.612 44.202h28.819v33.197h-28.82zm37.612-22.794h28.818v56h-28.818zm37.612 0h28.818v56H212.15z" fill="#ead1dc" fill-rule="evenodd"/>
    <path d="M37.125 124.562c6.49-3.181 26.85-19.469 38.94-19.087 12.089.382 22.142 20.997 33.595 21.378 11.453.382 24.94-5.6 35.12-19.09 10.182-13.487 18.2-67.443 25.962-61.843 7.763 5.599 6.871 79.916 20.615 95.44 13.743 15.526 49.374-1.4 61.845-2.29 12.47-.891 10.816-2.544 12.979-3.053" stroke="#ea9999" stroke-width="4"/>
    <path d="M265.017 52.03c-11.198-.128-53.191-16.798-67.189-.765-13.998 16.034-7.89 90.476-16.798 96.966-8.908 6.49-12.47-47.464-36.648-58.026-24.178-10.562-90.35-4.455-108.42-5.347" stroke="#b4a7d6" stroke-width="4"/>
    <path d="M70.716 15.833l-6.484-.953v-4h22.953v4l-7.906.953v49.765l20.64-.718 4.72-13.438 4.874.719-2.797 18.156h-42.64v-3.922l6.64-.797V15.833z" fill="#666"/>
    <path d="M0 0h55.14v193H0zm248.14 0h55.14v193h-55.14z" fill="#fff"/>
</svg>
